<svg xmlns="http://www.w3.org/2000/svg" width="306.25" height="350" viewBox="0 0 306.25 350">
  <path id="Icon_awesome-discord" data-name="Icon awesome-discord" d="M203.175,166.25c0,10.675-7.875,19.425-17.85,19.425-9.8,0-17.85-8.75-17.85-19.425s7.875-19.425,17.85-19.425S203.175,155.575,203.175,166.25ZM121.45,146.825c-9.975,0-17.85,8.75-17.85,19.425s8.05,19.425,17.85,19.425c9.975,0,17.85-8.75,17.85-19.425C139.475,155.575,131.425,146.825,121.45,146.825ZM306.25,36.05V350c-44.088-38.961-29.988-26.064-81.2-73.675l9.275,32.375H35.875A35.962,35.962,0,0,1,0,272.65V36.05A35.962,35.962,0,0,1,35.875,0h234.5A35.962,35.962,0,0,1,306.25,36.05Zm-49.875,165.9c0-56.35-25.2-102.025-25.2-102.025C205.975,81.025,182,81.55,182,81.55l-2.45,2.8c29.75,9.1,43.575,22.225,43.575,22.225-41.57-22.783-90.4-22.788-130.725-5.075-6.475,2.975-10.325,5.075-10.325,5.075S96.6,92.75,128.1,83.65l-1.75-2.1s-23.975-.525-49.175,18.375c0,0-25.2,45.675-25.2,102.025,0,0,14.7,25.375,53.375,26.6,0,0,6.475-7.875,11.725-14.525-22.225-6.65-30.625-20.65-30.625-20.65,2.574,1.8,6.82,4.138,7.175,4.375,29.538,16.542,71.5,21.961,109.2,6.125A100.142,100.142,0,0,0,222.95,193.55s-8.75,14.35-31.675,20.825c5.25,6.65,11.55,14.175,11.55,14.175,38.675-1.225,53.55-26.6,53.55-26.6Z" fill="#738adb"/>
</svg>
